Coordinates
version=1
nRows=11
nColumns=42
inDegrees=yes

Units are S.I. units (second, meters, Newtons, ...)
If the header above contains a line with 'inDegrees', this indicates whether rotational values are in degrees (yes) or radians (no).

endheader
time	pelvis_tilt	pelvis_list	pelvis_rotation	pelvis_tx	pelvis_ty	pelvis_tz	hip_flexion_r	hip_adduction_r	hip_rotation_r	knee_angle_r	knee_adduction_r	knee_angle_r_beta	ankle_angle_r	subtalar_angle_r	mtp_angle_r	hip_flexion_l	hip_adduction_l	hip_rotation_l	knee_angle_l	knee_adduction_l	knee_angle_l_beta	ankle_angle_l	subtalar_angle_l	mtp_angle_l	lumbar_extension	lumbar_bending	lumbar_rotation	arm_flex_r	arm_add_r	arm_rot_r	elbow_flex_r	pro_sup_r	wrist_flex_r	wrist_dev_r	arm_flex_l	arm_add_l	arm_rot_l	elbow_flex_l	pro_sup_l	wrist_flex_l	wrist_dev_l
      1.76000000	     23.32681138	      4.47307209	      2.64736392	      0.37240806	      0.90695466	     -0.17998735	     -0.57613843	     -7.74819864	     -4.28715080	     68.54448532	      2.71831582	      1.19632695	     14.53961007	    -18.49755650	     -7.50544236	    -12.76641708	      8.47463794	     -6.42388495	     28.52939083	     -0.57193434	      0.49793180	     22.10487115	     -2.95448757	     -7.50544236	    -44.00417222	     -3.09461629	     -3.36254701	      4.83560918	     -5.94214691	    -15.70965440	     31.97627064	     90.00000001	      0.00000000	      0.00000000	     12.82835430	     -6.39951256	    -28.66134166	     37.47746873	     90.00000001	      0.00000000	      0.00000000
      1.77000000	     23.31004102	      4.47174030	      2.72308425	      0.37922464	      0.90689558	     -0.18046077	      0.56594301	     -7.65831183	     -4.05019715	     67.16143278	      2.86823094	      1.17218813	     14.57932293	    -18.49124602	     -7.50535384	    -13.40231444	      8.48204392	     -6.31994341	     28.24518332	     -0.59183213	      0.49297145	     22.53942689	     -2.72870352	     -7.50535384	    -44.09353627	     -2.98796580	     -3.54344595	      4.47460803	     -5.87109298	    -16.02976777	     31.83564772	     90.00000001	      0.00000000	      0.00000000	     13.11150872	     -6.58844863	    -28.39483259	     37.53617710	     90.00000001	      0.00000000	      0.00000000
      1.78000000	     23.26854898	      4.48550715	      2.80555549	      0.38608343	      0.90674997	     -0.18085384	      1.65373044	     -7.60201296	     -3.95313051	     65.63298393	      2.94938523	      1.14551167	     14.49703673	    -18.45807603	     -7.50526483	    -13.99993993	      8.48490509	     -6.24183861	     27.99592221	     -0.61204475	      0.48862102	     22.92734741	     -2.48302006	     -7.50526483	    -44.15221487	     -2.91538343	     -3.72927138	      4.09766339	     -5.77234318	    -16.37303371	     31.71505843	     90.00000001	      0.00000000	      0.00000000	     13.39111050	     -6.78415062	    -28.11511152	     37.58903265	     90.00000001	      0.00000000	      0.00000000
      1.79000000	     23.29129732	      4.51175387	      2.87966258	      0.39295658	      0.90661718	     -0.18116320	      2.61226375	     -7.57586048	     -4.14369947	     63.98142783	      2.81644186	      1.11668658	     14.11214666	    -18.46837394	     -7.50472173	    -14.65786961	      8.42507751	     -6.32541072	     27.77231967	     -0.56463014	      0.48471842	     23.55429617	     -1.68248741	     -7.50472173	    -44.27017141	     -2.84997629	     -3.77500170	      4.03977342	     -5.26630492	    -19.56342695	     31.26878119	     90.00000001	      0.00000000	      0.00000000	     13.70399054	     -7.26155483	    -26.23643880	     37.16980426	     90.00000001	      0.00000000	      0.00000000
      1.80000000	     23.19111177	      4.52951424	      2.95873469	      0.39979309	      0.90626462	     -0.18152457	      3.65586272	     -7.56520671	     -4.28430245	     62.25867332	      2.77422717	      1.08661884	     14.05347001	    -18.45179141	     -7.50464131	    -15.15848812	      8.44563004	     -6.30965462	     27.56756413	     -0.64352051	      0.48114476	     23.82348782	     -1.54079291	     -7.50464131	    -44.26380442	     -2.77821525	     -3.96574466	      3.64328477	     -5.23636783	    -19.65467310	     31.25608628	     90.00000001	      0.00000000	      0.00000000	     13.92120111	     -7.40210246	    -26.15139077	     37.41027052	     90.00000001	      0.00000000	      0.00000000
      1.81000000	     22.93376341	      4.70284941	      2.96974071	      0.40657282	      0.90558240	     -0.18177148	      4.89432675	     -7.82158827	     -4.45577324	     60.61743806	      2.75384518	      1.05797388	     13.96694754	    -17.99396564	     -7.50458929	    -15.38662772	      8.55303014	     -6.48771390	     27.57856957	     -0.54607830	      0.48133684	     23.87224686	     -1.39737482	     -7.50458929	    -44.11345844	     -2.92779656	     -4.18998749	      3.23281935	     -5.19779543	    -19.67800576	     31.28614352	     90.00000001	      0.00000000	      0.00000000	     14.16998965	     -7.59906420	    -26.08288304	     37.63688883	     90.00000001	      0.00000000	      0.00000000
      1.82000000	     23.06965096	      4.55651778	      3.11845543	      0.41354568	      0.90551633	     -0.18209343	      5.43854567	     -7.57518709	     -5.05355634	     58.54619295	      2.43843253	      1.02182383	     13.63093058	    -18.38684413	     -7.50451472	    -16.28358744	      8.42692896	     -6.26371401	     27.11597318	     -0.73681560	      0.47326301	     24.50600610	     -1.14460753	     -7.50451472	    -44.31523809	     -2.64003437	     -4.26189617	      2.83800979	     -5.15491492	    -19.86866627	     31.22086086	     90.00000001	      0.00000000	      0.00000000	     14.42291257	     -7.66710445	    -25.92239683	     37.71143787	     90.00000001	      0.00000000	      0.00000000
      1.83000000	     23.14872354	      4.58038213	      3.20917007	      0.42048302	      0.90524410	     -0.18224866	      6.07118855	     -7.59680877	     -6.00626105	     56.57709181	      1.89266297	      0.98745653	     12.95820344	    -18.36327808	     -7.50439028	    -17.06621745	      8.31422135	     -6.14539827	     26.79710014	     -0.55344761	      0.46769763	     25.04021569	     -0.63523005	     -7.50439028	    -44.48104620	     -2.57551511	     -4.36991658	      2.44254306	     -5.05960923	    -20.28403573	     31.22339279	     90.00000001	      0.00000000	      0.00000000	     14.74510017	     -7.84941921	    -25.63947722	     37.71726450	     90.00000001	      0.00000000	      0.00000000
      1.84000000	     23.09075813	      4.59606861	      3.29829635	      0.42739500	      0.90475264	     -0.18240869	      6.81801921	     -7.62946047	     -6.85359783	     54.61858259	      1.48195324	      0.95327410	     12.56637402	    -18.28830425	     -7.50426574	    -17.61538188	      8.25407330	     -6.18662153	     26.60264066	     -0.56194567	      0.46430367	     25.44920348	     -0.21849305	     -7.50426574	    -44.49910238	     -2.51229500	     -4.46218118	      2.06289251	     -4.96491719	    -20.71697923	     31.23080176	     90.00000001	      0.00000000	      0.00000000	     15.02575517	     -7.99144610	    -25.35533701	     37.73796208	     90.00000001	      0.00000000	      0.00000000
      1.85000000	     23.01568758	      4.60939200	      3.38056194	      0.43431303	      0.90420059	     -0.18251866	      7.53092228	     -7.67245421	     -7.68307147	     52.63447526	      1.14963420	      0.91864489	     12.23364605	    -18.21789529	     -7.50416344	    -18.14785294	      8.19005074	     -6.20909864	     26.41695067	     -0.56249400	      0.46106277	     25.83165994	      0.11176358	     -7.50416344	    -44.50443370	     -2.45784401	     -4.54569669	      1.69827040	     -4.90176748	    -21.06219318	     31.23291306	     90.00000001	      0.00000000	      0.00000000	     15.29200026	     -8.11326808	    -25.12575097	     37.79309325	     90.00000001	      0.00000000	      0.00000000
      1.86000000	     22.88097007	      4.63553680	      3.46701284	      0.44121259	      0.90353722	     -0.18263723	      8.26072757	     -7.74103446	     -8.49852642	     50.65409022	      0.86078731	      0.88408065	     11.96443171	    -18.05146240	     -7.50408118	    -18.59294407	      8.18483518	     -6.20035196	     26.24881177	     -0.63819148	      0.45812819	     26.15449416	      0.37995733	     -7.50408118	    -44.45779854	     -2.40374557	     -4.63440501	      1.34762099	     -4.87789107	    -21.32657146	     31.24576053	     90.00000001	      0.00000000	      0.00000000	     15.55613248	     -8.21862276	    -24.93967315	     37.87788176	     90.00000001	      0.00000000	      0.00000000
